<svg xmlns="http://www.w3.org/2000/svg" width="1200" height="800" viewBox="0 0 1200 800"><defs><linearGradient id="bg" x1="0" x2="1" y1="0" y2="1"><stop stop-color="#020817"/><stop offset="1" stop-color="#2a1708"/></linearGradient><radialGradient id="g" cx="55%" cy="35%" r="70%"><stop stop-color="#ffc400" stop-opacity=".32"/><stop offset="1" stop-color="#ffc400" stop-opacity="0"/></radialGradient></defs><rect width="1200" height="800" fill="url(#bg)"/><rect width="1200" height="800" fill="url(#g)"/><rect x="120" y="130" width="480" height="420" rx="22" fill="#d5b078" opacity=".95"/><rect x="150" y="160" width="420" height="360" rx="18" fill="#070b12"/><rect x="185" y="195" width="160" height="120" rx="14" fill="#111827" stroke="#ffc400" stroke-opacity=".25"/><rect x="375" y="195" width="160" height="120" rx="14" fill="#111827" stroke="#fff" stroke-opacity=".18"/><rect x="185" y="345" width="350" height="140" rx="16" fill="#111827" stroke="#fff" stroke-opacity=".18"/><rect x="660" y="180" width="340" height="230" rx="26" fill="#080b12" stroke="#ffc400" stroke-opacity=".35"/><rect x="710" y="235" width="240" height="88" rx="14" fill="#f5f5f5" opacity=".9"/><text x="830" y="292" text-anchor="middle" font-family="Arial" font-size="38" font-weight="900" fill="#111">JAKS</text><rect x="690" y="460" width="310" height="180" rx="18" fill="#f7f7f7"/><text x="725" y="520" font-family="Arial" font-size="34" font-weight="900" fill="#111">DFI Proposal</text><text x="725" y="565" font-family="Arial" font-size="22" fill="#222">Scan to view offer, pricing</text><text x="725" y="598" font-family="Arial" font-size="22" fill="#222">and contact info</text><rect x="900" y="500" width="70" height="70" fill="#111"/><text x="600" y="735" text-anchor="middle" font-family="Arial" font-size="48" font-weight="900" fill="#fff">Premium Sample Box</text><text x="600" y="775" text-anchor="middle" font-family="Arial" font-size="24" fill="#a6b0c4">Client-ready presentation with QR/NFC offer card</text></svg>